<?xml version="1.0" encoding="UTF-8" standalone="no"?>
<!-- Created with Inkscape (http://www.inkscape.org/) -->

<svg
   width="1665.5175"
   height="601.62787"
   viewBox="0 0 1665.5175 601.62787"
   version="1.1"
   id="svg1"
   inkscape:version="1.3.2 (091e20ef0f, 2023-11-25)"
   sodipodi:docname="sharkey_v2.svg"
   inkscape:export-filename="sharkey.webp"
   inkscape:export-xdpi="96"
   inkscape:export-ydpi="96"
   xml:space="preserve"
   xmlns:inkscape="http://www.inkscape.org/namespaces/inkscape"
   xmlns:sodipodi="http://sodipodi.sourceforge.net/DTD/sodipodi-0.dtd"
   xmlns:xlink="http://www.w3.org/1999/xlink"
   xmlns="http://www.w3.org/2000/svg"
   xmlns:svg="http://www.w3.org/2000/svg"><sodipodi:namedview
     id="namedview1"
     pagecolor="#ffffff"
     bordercolor="#000000"
     borderopacity="0.25"
     inkscape:showpageshadow="2"
     inkscape:pageopacity="0.0"
     inkscape:pagecheckerboard="0"
     inkscape:deskcolor="#d1d1d1"
     inkscape:document-units="px"
     inkscape:zoom="0.27189103"
     inkscape:cx="1226.5944"
     inkscape:cy="-9.1948603"
     inkscape:window-width="1920"
     inkscape:window-height="1054"
     inkscape:window-x="0"
     inkscape:window-y="0"
     inkscape:window-maximized="1"
     inkscape:current-layer="layer1"><sodipodi:guide
       position="-40.7713,-184.1606"
       orientation="0,1695.0204"
       id="guide5"
       inkscape:locked="false" /><sodipodi:guide
       position="1654.2491,-184.1606"
       orientation="631.91248,0"
       id="guide6"
       inkscape:locked="false" /><sodipodi:guide
       position="1654.2491,-816.07308"
       orientation="0,-1695.0204"
       id="guide7"
       inkscape:locked="false" /><sodipodi:guide
       position="-40.7713,-816.07308"
       orientation="-631.91248,0"
       id="guide8"
       inkscape:locked="false" /></sodipodi:namedview><defs
     id="defs1"><linearGradient
       id="linearGradient4"
       inkscape:collect="always"><stop
         style="stop-color:#47bfe8;stop-opacity:1;"
         offset="0"
         id="stop4" /><stop
         style="stop-color:#1b98c5;stop-opacity:1;"
         offset="1"
         id="stop5" /></linearGradient><rect
       x="-722.31464"
       y="50.16074"
       width="1269.0667"
       height="453.95468"
       id="rect1" /><clipPath
       clipPathUnits="userSpaceOnUse"
       id="clipPath12"><use
         x="0"
         y="0"
         xlink:href="#g11"
         id="use12" /></clipPath><linearGradient
       inkscape:collect="always"
       xlink:href="#linearGradient4"
       id="linearGradient5"
       x1="-1731.0894"
       y1="61.031143"
       x2="-306.22168"
       y2="61.031143"
       gradientUnits="userSpaceOnUse" /></defs><g
     inkscape:label="Layer 1"
     inkscape:groupmode="layer"
     id="layer1"
     transform="matrix(1.1688928,0,0,1.1688928,2023.4578,229.47509)"><g
       id="g13"
       inkscape:label="background"
       style="display:inline"><path
         style="color:#000000;-inkscape-font-specification:'Lilita One';display:inline;fill:url(#linearGradient5);stroke-width:1.05697;stroke-linecap:round;-inkscape-stroke:none"
         d="m -1551.6113,-196.29436 c -2.61,-0.0525 -5.2254,-0.0121 -7.8731,0.0568 -21.3013,0.2461 -42.9286,3.92088 -64.7539,10.56526 -35.9725,10.95124 -68.1143,34.75458 -87.4746,69.33533 v 0.007 c -18.5971,33.192202 -24.2486,75.374047 -15.0332,113.1543186 7.076,29.0100434 19.4995,55.7704794 38.0723,76.3439274 -5.8955,13.710512 -6.725,26.080054 -7.6993,38.937844 -1.5336,18.52319 -0.1922,37.34849 4.1856,55.29633 6.4961,26.63152 26.5887,49.93525 47.8086,60.29748 v -0.002 c 18.2368,8.90559 38.4464,12.59156 58.2168,11.25042 l 0.096,-0.007 0.096,-0.007 c 17.0625,-1.23548 34.486,-4.76617 52.4453,-10.2336 l 0.3691,-0.11346 0.3672,-0.11783 c 7.8461,-2.54239 15.4307,-5.75787 22.8164,-9.34333 1.5747,8.17962 4.4253,15.80258 7.7969,21.08905 5.4402,8.52985 10.8514,12.74005 15.0977,15.66242 8.4926,5.84474 13.8504,7.20635 19.0605,8.69747 10.4202,2.98223 20.0947,4.18713 32.4414,5.34372 11.9976,1.1239 21.2511,1.75147 30.2031,1.52086 4.4761,-0.1153 8.5226,-0.0992 15.8907,-2.00308 1.6067,-0.41519 3.5359,-0.96012 5.6836,-1.75651 2.0157,1.06183 3.597,1.63765 5.0449,2.22783 5.7917,2.36066 9.3113,3.09689 13.414,4.01052 8.2055,1.82725 17.5671,3.27199 29.8438,4.89423 l 0.7969,0.10692 0.7988,0.0742 c 11.2638,1.05516 19.9883,1.64809 28.7891,1.34193 4.4004,-0.15309 8.4796,-0.1444 16.0761,-2.30638 3.7983,-1.08099 8.6998,-2.34858 16.2989,-8.10178 6.9164,-5.23639 17.3912,-18.18192 20.3242,-34.97314 13.3867,7.05692 27.8981,11.43652 42.4863,12.39159 18.3555,1.20172 37.2265,-1.60754 54.5117,-8.7062 14.3834,9.2705 30.7638,14.29092 46.5137,15.32204 11.9969,0.78543 24.1592,-3.54766 34.8633,-10.35579 2.8111,4.24365 5.7641,7.86301 8.3301,10.12885 6.5258,5.76251 11.088,7.48786 14.4609,8.77166 6.7459,2.5676 9.7611,2.63457 12.498,2.92388 5.474,0.57861 8.8613,0.42866 12.9297,0.27275 8.1369,-0.31181 17.7372,-1.19937 30.32621,-2.60967 l 0.51367,-0.0567 0.51367,-0.0721 c 12.64145,-1.73039 22.26024,-3.25746 30.57617,-5.1277 4.15797,-0.93513 7.68803,-1.6829 13.45703,-4.0258 2.88451,-1.17145 6.26876,-2.24887 12.72852,-7.35553 2.85423,-2.25637 6.57693,-5.52065 10.64453,-11.59735 0.59893,0.13858 1.26701,0.35074 1.86523,0.48877 9.89226,2.28248 19.69585,3.30556 32.34961,4.24835 12.86298,0.95838 22.89069,1.39535 33.32227,0.46041 5.21579,-0.46747 10.30795,-0.76145 19.08984,-4.34874 0.47862,-0.1955 1.14051,-0.5956 1.65039,-0.81388 6.21759,4.5122 10.604,3.68574 13.92579,4.80695 5.51459,1.86135 9.72426,2.67368 14.38281,3.4803 9.31709,1.61324 19.94576,2.69444 33.45117,3.70068 8.37305,0.62385 17.70804,0.80294 28.37109,0.70479 6.14032,0.11412 10.83554,0.16347 16.85157,-0.44296 3.00801,-0.30321 5.74205,-0.11812 13.53906,-3.04389 2.08899,-0.78387 4.80694,-1.62709 8.25,-3.74214 0.61025,0.42603 1.15747,0.9401 1.77539,1.35503 l 0.15039,0.10032 0.14844,0.10032 c 31.38693,20.72402 69.81918,26.56919 105.40234,17.03054 0.93847,8.27161 2.95297,15.81436 5.68945,20.57411 6.59492,11.47097 11.96716,14.49961 15.55469,16.96726 7.17505,4.93529 10.24575,5.58341 13.42969,6.71838 6.07676,2.16617 11.2345,3.3821 17.67187,4.80259 13.51432,3.30271 27.8115,6.01989 42.95313,8.21306 h 0.002 c 8.00376,1.15929 14.3293,1.94442 21.33594,2.10345 3.50332,0.0795 6.89028,0.27318 13.4707,-1.04082 3.29022,-0.65699 7.47427,-1.42013 14.34375,-5.35681 5.81846,-3.33438 15.38803,-10.78966 21.25196,-24.25951 l -0.20704,0.57823 127.625,-282.975265 -2.1875,4.3290943 c 9.0562,-16.0897007 5.65493,-49.3845983 -2.66601,-61.4517553 -8.32094,-12.067157 -14.20105,-14.267326 -18.41211,-16.574497 -8.42211,-4.614341 -13.12236,-5.586285 -18.88477,-7.100238 -11.52482,-3.027905 -25.1825,-5.387646 -43.52929,-8.045046 -8.74143,-1.26613 -15.88177,-2.102226 -23.77344,-2.107814 -3.94584,-0.0028 -7.96198,0.0097 -14.37891,1.472852 -3.88911,0.88676 -10.02309,1.415874 -17.14062,6.454365 -0.96184,-0.98444 -1.98079,-2.085425 -2.8086,-2.838786 -5.49448,-5.000387 -9.29784,-6.896573 -12.47656,-8.472723 -6.35744,-3.152284 -10.60224,-4.28673 -15.23828,-5.520461 -9.27207,-2.467472 -19.38376,-4.225095 -32.39453,-6.109606 -12.9758,-1.87946 -23.01602,-3.0406 -32.85742,-3.13554 -4.92123,-0.0475 -9.4495,-0.22218 -17.56446,1.79361 -4.05748,1.00788 -9.26487,2.234201 -17.10937,7.890121 -5.91686,4.266074 -14.11249,13.534521 -18.70313,25.714903 -12.5028,-4.17526 -25.58974,-6.048941 -38.51562,-5.801947 -12.65328,0.241787 -25.25418,2.339887 -37.86328,5.849951 -4.56008,1.269416 -9.04853,2.817833 -13.45508,4.610573 l -15.75391,-9.461166 c -24.12112,-14.48528 -36.02861,-11.887017 -58.79101,-13.58297 -9.70217,-0.722877 -18.07381,-0.835543 -26.5918,-0.24002 l 1.92383,-32.217275 c 1.13107,-18.94707 -8.05589,-35.09798 -14.45117,-42.11266 -6.39528,-7.01468 -10.99167,-9.33135 -14.58594,-11.20677 -7.18855,-3.75084 -11.42196,-4.67837 -15.98047,-5.80849 -9.11702,-2.26026 -18.52616,-3.59494 -30.72461,-4.98807 l -0.82617,-0.0938 -0.82812,-0.0632 c -6.74328,-0.50242 -12.89194,-0.79903 -18.66797,-0.85099 -8.66948,-0.078 -15.95815,-0.0552 -26.04102,2.44603 -5.04143,1.25062 -11.05443,2.71746 -19.70898,9.11423 -8.65456,6.39677 -21.24173,23.13406 -22.40821,42.67343 l -3.04882,51.085061 c -6.07518,-0.230895 -11.86662,0.157567 -17.58594,0.940443 -16.52562,2.26206 -31.95294,9.965897 -44.87704,20.451915 -15.2546,-7.224687 -32.4146,-9.872575 -48.0293,-7.735201 -7.2736,0.995627 -14.8603,4.051383 -22.1035,8.370165 -21.2087,-20.669603 -49.2471,-28.957121 -77.4472,-30.803339 -7.5698,-0.495584 -14.9145,-0.711019 -22.0704,-0.615325 -21.4436,0.286759 -41.1895,3.126257 -59.9062,10.872922 l -1.625,0.672056 -1.5742,0.802977 c -17.9558,9.159951 -27.4122,26.935181 -31.877,43.245122 -14.1178,-10.915275 -30.5399,-17.836493 -47.3691,-21.226527 l 2.2422,-29.875988 c 1.6293,-21.707181 -11.1909,-42.178261 -20.0547,-49.784581 -8.8638,-7.60632 -15.269,-9.73203 -21.084,-11.70427 -11.6298,-3.94449 -21.8637,-5.23671 -34.6992,-6.43909 -7.8201,-0.73258 -16.0446,-0.9168 -25.3633,-0.78334 -5.9051,0.0846 -11.0845,0.10066 -19.4473,2.27146 -4.1813,1.08538 -9.3671,2.31968 -17.3476,8.09742 -4.484,3.24626 -10.4102,9.62706 -15.0508,18.04735 -0.5699,-6.85586 -1.4567,-13.73618 -3.1777,-20.79231 v -0.002 c -0.2132,-0.87403 -0.4229,-1.73172 -0.6289,-2.57695 l -0.4961,-2.03144 -0.6387,-1.97907 c -7.4521,-23.10254 -26.4038,-35.71491 -39.2031,-40.13359 -9.5995,-3.31401 -17.968,-4.33314 -26.3379,-4.50147 z m 524.9902,145.969465 c -0.019,0.01875 -0.034,0.04233 -0.053,0.0611 -0.05,0.04979 -0.1063,0.09413 -0.1563,0.144012 z m 24.1231,2.360927 0.6933,0.554229 c -0.1102,-0.08955 -0.2331,-0.159827 -0.3437,-0.248748 -0.1187,-0.09404 -0.2307,-0.212456 -0.3496,-0.305481 z m -74.0586,4.612756 0.3105,0.440764 c -0.049,-0.07116 -0.1088,-0.125422 -0.1582,-0.19638 -0.056,-0.07905 -0.096,-0.165444 -0.1523,-0.244384 z m -605.0196,123.802496 c 0.1359,0.13224 0.2818,0.237575 0.418,0.368758 0.1518,0.142169 0.285,0.303722 0.4375,0.445128 z"
         id="path3"
         inkscape:label="shadow"
         sodipodi:nodetypes="ccscccccccccccccccsssssscsscccssscscscsssscccssscsssscssscsscccccssscsssssccccsssssscssssssscssccsccssscccsssccscscssccscccssssssccccccscccccccccccccccccc" /><path
         style="color:#000000;-inkscape-font-specification:'Lilita One';display:inline;fill:#ffffff;stroke-linecap:round;-inkscape-stroke:none;fill-opacity:1"
         d="m -1551.6113,-196.29687 c -2.61,-0.047 -5.2254,-0.0108 -7.8731,0.0508 -21.3013,0.22029 -42.9286,3.50961 -64.7539,9.45703 -35.9725,9.80253 -68.1143,31.10905 -87.4746,62.0625 v 0.006 c -18.5971,29.710551 -24.2486,67.46779 -15.0332,101.285153 7.076,25.9670757 19.4995,49.920513 38.0723,68.335938 -5.8955,12.272367 -6.725,23.344423 -7.6993,34.853515 -1.5336,16.580228 -0.1922,33.430874 4.1856,49.496094 6.4961,23.83805 26.5887,44.69736 47.8086,53.97266 v -0.002 c 18.2368,7.97145 38.4464,11.27078 58.2168,10.07032 l 0.096,-0.006 0.096,-0.006 c 17.0625,-1.10589 34.486,-4.26623 52.4453,-9.16016 l 0.3691,-0.10156 0.3672,-0.10547 c 7.8461,-2.27571 15.4307,-5.15391 22.8164,-8.36328 1.5747,7.32163 4.4253,14.14499 7.7969,18.87695 5.4402,7.63512 10.8514,11.4037 15.0977,14.01953 8.4926,5.23166 13.8504,6.45045 19.0605,7.78516 10.4202,2.66941 20.0947,3.74793 32.4414,4.7832 11.9976,1.00601 21.2511,1.56775 30.2031,1.36133 4.4761,-0.10321 8.5226,-0.0888 15.8907,-1.79297 1.6067,-0.37164 3.5359,-0.85941 5.6836,-1.57226 2.0157,0.95045 3.597,1.46587 5.0449,1.99414 5.7917,2.11304 9.3113,2.77205 13.414,3.58984 8.2055,1.63559 17.5671,2.92878 29.8438,4.38086 l 0.7969,0.0957 0.7988,0.0664 c 11.2638,0.94448 19.9883,1.47522 28.7891,1.20117 4.4004,-0.13703 8.4796,-0.12925 16.0761,-2.06445 3.7983,-0.9676 8.6998,-2.10223 16.2989,-7.25196 6.9164,-4.68712 17.3912,-16.27475 20.3242,-31.30468 13.3867,6.3167 27.8981,10.2369 42.4863,11.09179 18.3555,1.07567 37.2265,-1.43892 54.5117,-7.79297 14.3834,8.29808 30.7638,12.79189 46.5137,13.71485 11.9969,0.70305 24.1592,-3.17553 34.8633,-9.26953 2.8111,3.79852 5.7641,7.03823 8.3301,9.0664 6.5258,5.15806 11.088,6.70243 14.4609,7.85157 6.7459,2.29827 9.7611,2.35822 12.498,2.61718 5.474,0.51792 8.8613,0.3837 12.9297,0.24414 8.1369,-0.2791 17.7372,-1.07356 30.32621,-2.33593 l 0.51367,-0.0508 0.51367,-0.0645 c 12.64145,-1.54888 22.26024,-2.91577 30.57617,-4.58984 4.15797,-0.83704 7.68803,-1.50637 13.45703,-3.60352 2.88451,-1.04857 6.26876,-2.01297 12.72852,-6.58398 2.85423,-2.01969 6.57693,-4.94157 10.64453,-10.38086 0.59893,0.12404 1.26701,0.31395 1.86523,0.4375 9.89226,2.04306 19.69585,2.95883 32.34961,3.80273 12.86298,0.85785 22.89069,1.24898 33.32227,0.41211 5.21579,-0.41843 10.30795,-0.68158 19.08984,-3.89258 0.47862,-0.175 1.14051,-0.53313 1.65039,-0.72851 6.21759,4.0389 10.604,3.29913 13.92579,4.30273 5.51459,1.66611 9.72426,2.39323 14.38281,3.11524 9.31709,1.44402 19.94576,2.41181 33.45117,3.3125 8.37305,0.55841 17.70804,0.71872 28.37109,0.63086 6.14032,0.10215 10.83554,0.14633 16.85157,-0.39649 3.00801,-0.27141 5.74205,-0.10573 13.53906,-2.72461 2.08899,-0.70165 4.80694,-1.45642 8.25,-3.34961 0.61025,0.38134 1.15747,0.84149 1.77539,1.21289 l 0.15039,0.0898 0.14844,0.0898 c 31.38693,18.5502 69.81918,23.78225 105.40234,15.24414 0.93847,7.40397 2.95297,14.15554 5.68945,18.41602 6.59492,10.26774 11.96716,12.97869 15.55469,15.1875 7.17505,4.41761 10.24575,4.99775 13.42969,6.01367 6.07676,1.93895 11.2345,3.02734 17.67187,4.29883 13.51432,2.95627 27.8115,5.38844 42.95313,7.35156 h 0.002 c 8.00376,1.03769 14.3293,1.74046 21.33594,1.88281 3.50332,0.0712 6.89028,0.24453 13.4707,-0.93164 3.29022,-0.58808 7.47427,-1.27117 14.34375,-4.79492 5.81846,-2.98462 15.38803,-9.65789 21.25196,-21.71484 l -0.20704,0.51758 127.625,-253.292973 -2.1875,3.875 c 9.0562,-14.401994 5.65493,-44.20447 -2.66601,-55.005859 -8.32094,-10.80139 -14.20105,-12.770775 -18.41211,-14.835938 -8.42211,-4.130327 -13.12236,-5.00032 -18.88477,-6.355469 -11.52482,-2.710297 -25.1825,-4.822516 -43.52929,-7.201172 -8.74143,-1.133321 -15.88177,-1.881716 -23.77344,-1.886718 -3.94584,-0.0025 -7.96198,0.0087 -14.37891,1.318359 -3.88911,0.793745 -10.02309,1.267358 -17.14062,5.777344 -0.96184,-0.881179 -1.98079,-1.866677 -2.8086,-2.541016 -5.49448,-4.475878 -9.29784,-6.173166 -12.47656,-7.583988 -6.35744,-2.82163 -10.60224,-3.83708 -15.23828,-4.9414 -9.27207,-2.20865 -19.38376,-3.78191 -32.39453,-5.46875 -12.9758,-1.68231 -23.01602,-2.72166 -32.85742,-2.80664 -4.92123,-0.0425 -9.4495,-0.19887 -17.56446,1.60547 -4.05748,0.90216 -9.26487,1.99985 -17.10937,7.0625 -5.91686,3.81859 -14.11249,12.114836 -18.70313,23.017574 -12.5028,-3.737302 -25.58974,-5.414446 -38.51562,-5.19336 -12.65328,0.216425 -25.25418,2.094448 -37.86328,5.236329 -4.56008,1.136262 -9.04853,2.52226 -13.45508,4.126953 l -15.75391,-8.46875 c -24.12112,-12.965867 -36.02861,-10.640145 -58.79101,-12.158203 -9.70217,-0.647052 -18.07381,-0.7479 -26.5918,-0.214844 l 1.92383,-28.837889 c 1.13107,-16.95964 -8.05589,-31.41643 -14.45117,-37.69531 -6.39528,-6.27889 -10.99167,-8.35255 -14.58594,-10.03125 -7.18855,-3.3574 -11.42196,-4.18764 -15.98047,-5.19922 -9.11702,-2.02317 -18.52616,-3.21785 -30.72461,-4.46485 l -0.82617,-0.084 -0.82812,-0.0566 c -6.74328,-0.44972 -12.89194,-0.71521 -18.66797,-0.76172 -8.66948,-0.0698 -15.95815,-0.0494 -26.04102,2.18945 -5.04143,1.11944 -11.05443,2.43242 -19.70898,8.15821 -8.65456,5.72579 -21.24173,20.70744 -22.40821,38.19726 l -3.04882,45.726564 c -6.07518,-0.206675 -11.86662,0.14104 -17.58594,0.841797 -16.52562,2.024784 -31.95294,8.920538 -44.87704,18.30664 -15.2546,-6.466864 -32.4146,-8.837005 -48.0293,-6.923828 -7.2736,0.891192 -14.8603,3.626419 -22.1035,7.492188 -21.2087,-18.501494 -49.2471,-25.919704 -77.4472,-27.572266 -7.5698,-0.4436 -14.9145,-0.636437 -22.0704,-0.550781 -21.4436,0.25668 -41.1895,2.798333 -59.9062,9.732422 l -1.625,0.601562 -1.5742,0.71875 c -17.9558,8.19913 -27.4122,24.109852 -31.877,38.708985 -14.1178,-9.770333 -30.5399,-15.965559 -47.3691,-19 l 2.2422,-26.742188 c 1.6293,-19.430235 -11.1909,-37.754035 -20.0547,-44.562495 -8.8638,-6.80847 -15.269,-8.7112 -21.084,-10.47657 -11.6298,-3.53074 -21.8637,-4.68741 -34.6992,-5.76367 -7.8201,-0.65574 -16.0446,-0.82063 -25.3633,-0.70117 -5.9051,0.0757 -11.0845,0.0901 -19.4473,2.0332 -4.1813,0.97153 -9.3671,2.07636 -17.3476,7.24805 -4.484,2.90575 -10.4102,8.61724 -15.0508,16.1543 -0.5699,-6.13673 -1.4567,-12.29535 -3.1777,-18.61133 v -0.002 c -0.2132,-0.78235 -0.4229,-1.55007 -0.6289,-2.30664 l -0.4961,-1.81836 -0.6387,-1.77148 c -7.4521,-20.67923 -26.4038,-31.96864 -39.2031,-35.92383 -9.5995,-2.96639 -17.968,-3.87862 -26.3379,-4.02929 z m 524.9902,130.658198 c -0.019,0.01678 -0.034,0.03789 -0.053,0.05469 -0.05,0.04457 -0.1063,0.08426 -0.1563,0.128906 z m 24.1231,2.113281 0.6933,0.496094 c -0.1102,-0.08016 -0.2331,-0.143063 -0.3437,-0.222656 -0.1187,-0.08418 -0.2307,-0.190171 -0.3496,-0.273438 z m -74.0586,4.128907 0.3105,0.394531 c -0.049,-0.0637 -0.1088,-0.112266 -0.1582,-0.175781 -0.056,-0.07076 -0.096,-0.14809 -0.1523,-0.21875 z m -605.0196,110.816406 c 0.1359,0.118369 0.2818,0.212655 0.418,0.330078 0.1518,0.127256 0.285,0.271863 0.4375,0.398437 z"
         id="path4"
         inkscape:label="background"
         sodipodi:nodetypes="ccscccccccccccccccsssssscsscccssscscscsssscccssscsssscssscsscccccssscsssssccccsssssscssssssscssccsccssscccsssccscscssccscccssssssccccccscccccccccccccccccc" /></g><g
       id="path9"
       style="display:inline"
       inkscape:label="logo"><g
         id="g12"
         clip-path="url(#clipPath12)"
         inkscape:label="text"
         style="display:inline"><g
           inkscape:label="Clip"
           id="g11"><path
             style="color:#000000;-inkscape-font-specification:'Lilita One';fill:#006d8d;stroke-linecap:round;-inkscape-stroke:none"
             d="m -1558.8555,-149.20312 c -16.8162,0.16017 -34.4872,2.76455 -53.0117,7.8125 -27.2722,7.43169 -47.2588,21.3092 -59.9629,41.630854 -12.5169,19.994261 -15.6913,41.312057 -9.5215,63.953125 6.1697,22.641072 16.3979,39.8911256 30.6856,51.751953 5.0743,4.421437 11.6583,8.294359 19.75,11.617188 8.2787,2.995436 14.7915,5.089406 19.539,6.283203 4.6774,0.936516 11.6586,2.212381 20.9434,3.828125 9.2848,1.615742 15.8916,3.546872 19.8203,5.792969 3.8586,1.988811 6.3136,4.914164 7.3653,8.773437 2.3136,8.490402 -2.0618,14.241118 -13.125,17.25586 -10.806,2.944633 -23.1668,2.720396 -37.0821,-0.673828 -13.658,-3.464332 -23.4565,-6.45915 -29.3965,-8.986328 -3.4624,4.536578 -5.6851,12.60474 -6.6699,24.205078 -1.0548,11.343048 -0.146,22.289204 2.7285,32.837894 2.8746,10.54867 9.9604,18.29121 21.2559,23.22851 11.2954,4.93729 23.4687,7.00925 36.5195,6.2168 13.3081,-0.86255 27.6801,-3.3969 43.1172,-7.60352 31.5058,-9.13814 52.4646,-24.52241 62.877,-46.154294 10.4122,-21.631883 11.867,-46.212704 4.3652,-73.742187 -5.7491,-21.0973605 -17.1944,-36.220742 -34.3359,-45.369141 -8.3721,-4.35197 -16.0072,-7.522268 -22.9063,-9.511719 -6.7119,-2.316848 -12.9557,-3.932352 -18.7324,-4.845703 -5.5895,-1.240754 -10.5601,-2.235035 -14.9102,-2.984375 -4.35,-0.74934 -7.6945,-1.359867 -10.0332,-1.828125 -10.7114,-1.779761 -16.8384,-5.497937 -18.3808,-11.158203 -2.524,-9.262257 2.6475,-15.646829 15.5117,-19.152344 13.1216,-3.575624 29.0716,-3.362708 47.8515,0.640625 1.895,-2.174702 3.8154,-10.850777 5.7598,-26.029294 1.8743,-15.43582 1.5829,-27.65715 -0.8711,-36.66211 -0.2103,-0.77186 -0.4206,-1.5426 -0.6308,-2.31445 -2.2674,-6.29191 -11.7735,-9.22996 -28.5196,-8.8125 z m 673.82425,10.60351 c -13.67296,-0.11009 -20.61713,1.43209 -20.83008,4.625 l -18.25976,273.79102 c -0.21295,3.1929 11.25574,5.56165 34.40429,7.10547 23.41463,1.56155 35.23807,0.61328 35.46875,-2.84571 l 5.88086,-88.205076 33.60352,91.238286 c 1.70282,2.51889 15.3259,4.63047 40.86914,6.33398 6.91796,0.46137 15.59326,0.63937 26.02344,0.5332 10.67849,0.17765 15.78538,-0.28302 15.32421,-1.38281 l -52.38671,-116.144531 57.52734,-81.150391 c -5.67621,-3.051143 -18.89066,-5.27019 -39.64453,-6.654297 -20.75388,-1.384107 -32.19552,-0.142306 -34.32422,3.72461 l -44.38281,70.402343 10.2207,-153.259764 c 0.17745,-2.66075 -11.01495,-5.14463 -33.57812,-7.45117 -6.05322,-0.4037 -11.35837,-0.62346 -15.91602,-0.66016 z m -543.64845,28.37891 c -8.3043,0.10648 -12.5351,1.08909 -12.6914,2.94922 l -22.8945,273.04101 c -0.312,3.72027 10.5613,6.50608 32.6172,8.35547 22.3213,1.87166 33.5824,1.61229 33.7832,-0.7793 l 10.8281,-129.148434 c 8.1741,-4.934243 15.1851,-7.156216 21.0312,-6.666016 8.5036,0.713021 12.2092,7.580607 11.1172,20.601562 l -9.8261,117.189458 c -0.156,1.86013 11.4244,4.16778 34.7421,6.92578 20.727,1.73798 31.1918,1.41308 31.3926,-0.97852 l 10.3594,-123.566405 c 2.451,-29.230727 -1.7225,-49.6519656 -12.5234,-61.2617188 -10.7788,-11.8754882 -26.2672,-18.6601002 -46.4629,-20.3535152 -7.7063,-0.646174 -19.1893,0.665854 -34.4492,3.935547 l 6.6855,-79.720704 c 0.4011,-4.783214 -10.5592,-8.110744 -32.8809,-9.982424 -5.5804,-0.46793 -12.5235,-0.64747 -20.8281,-0.54101 z m 882.10939,43.738278 c -6.1106,-0.05277 -9.26065,0.647071 -9.44922,2.101563 l 44.03515,189.232419 -45.31054,78.82813 c -0.70033,1.25368 4.98099,3.06697 17.04297,5.4375 12.02769,2.63497 25.04844,4.86055 39.06445,6.67773 14.28047,1.85146 21.65679,2.00165 22.12695,0.44922 l 127.625,-253.292968 c 2.03244,-3.232173 -14.53672,-7.129381 -49.70898,-11.689453 -15.33827,-1.9886 -23.67376,-1.994105 -25.00586,-0.01563 l -39.61133,90.861328 -16.42383,-97.31836 c -0.4505,-2.747389 -12.84025,-5.69918 -37.16992,-8.853515 -12.03262,-1.560025 -21.10425,-2.365202 -27.21484,-2.417969 z m -640.83989,13.746094 c -17.7429,0.212382 -32.4501,2.482122 -44.123,6.80664 -4.6661,2.130681 -7.2489,7.453956 -7.748,15.972657 -0.4836,8.252491 2.6112,19.252718 9.2851,32.9999998 18.8842,-3.16733402 33.3841,-4.4560927 43.5,-3.8632813 8.2525,0.48360277 13.3818,1.8549017 15.3867,4.109375 2.2867,2.0038681 3.2259,6.4652722 2.8203,13.3867185 l -0.2343,3.992188 -21.9629,-1.28711 c -51.9109,-3.042056 -79.1369,17.135209 -81.6797,60.527344 -1.1076,18.900866 4.5887,35.662257 17.0879,50.285157 12.4993,14.62289 28.4671,22.50375 47.9004,23.64258 25.8222,1.51323 45.3065,-5.09193 58.457,-19.81446 1.8645,4.65035 4.7018,8.68868 8.5078,12.11719 8.3324,8.23488 19.6853,12.77673 34.0606,13.61914 7.9862,0.46801 14.5084,-3.6926 19.5644,-12.47851 5.3222,-8.77031 8.2549,-17.81548 8.8008,-27.13282 0.5461,-9.31733 -0.3551,-16.71513 -2.7051,-22.195308 -2.0839,-5.46459 -5.3905,-8.330498 -9.916,-8.595703 l -13.5762,-0.794922 3.6973,-63.091797 c 1.4196,-24.2250578 -2.969,-42.780772 -13.166,-55.666016 -10.1814,-13.15145 -28.5802,-20.50443 -55.2012,-22.064453 -6.5887,-0.386107 -12.8416,-0.545403 -18.7559,-0.474609 z m 230.15043,8.375 c -3.13779,-0.119284 -6.62493,0.0571 -10.46289,0.527344 -9.79341,1.199928 -19.0496,5.691889 -27.76757,13.476562 -8.48567,7.487557 -14.84347,16.99804 -19.07227,28.5312501 -1.1351,-9.2640481 -6.1095,-16.9826161 -14.9258,-23.1562501 -8.8486,-6.438323 -19.2297,-8.928122 -31.1406,-7.46875 -16.94,2.075553 -23.6588,17.405988 -20.1563,45.992188 0.9405,7.675924 2.9263,14.015712 5.9571,19.017578 3.263,4.70475 7.013,6.796232 11.248,6.277344 l 10.7188,-1.3125 16.1504,131.814452 c 0.1946,1.58813 12.3681,1.16985 36.5195,-1.25195 24.08652,-2.95118 36.01607,-5.35227 35.78906,-7.20508 L -977.97461,50.109375 c -1.94583,-15.881222 2.10986,-24.437562 12.16797,-25.669922 3.44093,-0.421596 7.40986,0.167017 11.9043,1.765625 4.7267,1.30149 7.35344,1.918376 7.88281,1.853516 0.52937,-0.06486 1.82555,-2.641797 3.88867,-7.730469 2.06312,-5.088672 3.63769,-13.0718159 4.72266,-23.9511719 1.34965,-10.9117871 1.78138,-18.3519591 1.29492,-22.3222651 -0.51888,-4.234992 -1.30586,-7.362608 -2.35938,-9.382813 -3.11187,-5.663584 -9.37373,-8.675352 -18.78711,-9.033203 z m 320.00782,4.367187 c -8.49176,0.145245 -17.58773,1.42788 -27.29102,3.845703 -25.87541,6.447529 -45.00001,21.242288 -57.37109,44.3867192 -12.11234,23.0799548 -14.29953,50.1448028 -6.5625,81.1953128 7.67256,30.791746 22.49891,52.792926 44.47851,66.003906 21.91514,12.95221 45.6802,16.23852 71.29688,9.85547 25.61666,-6.38305 45.38484,-16.39344 59.30078,-30.0293 4.33606,-3.55381 5.56901,-9.08206 3.69922,-16.58594 -1.93426,-7.76263 -7.39247,-16.43464 -16.375,-26.013668 -3.03717,-3.365504 -4.65338,-4.885734 -4.84766,-4.5625 -14.23831,12.342078 -30.41454,20.769938 -48.52734,25.283208 -8.28013,2.06321 -14.97398,2.21896 -20.08203,0.46875 -4.91378,-2.07345 -8.33917,-6.99128 -10.27344,-14.753911 l 26.7832,-6.673828 C -574.89515,80.433378 -556.055,53.478736 -566.5,11.560547 -571.2067,-7.3285132 -582.32011,-21.599675 -599.83984,-31.25 c -10.78811,-6.071752 -23.25919,-8.986215 -37.41211,-8.744141 z m -7.04102,62.066407 c 7.41624,-0.08932 12.22556,4.281339 14.42578,13.111328 2.19217,8.797645 -0.98064,14.259035 -9.51953,16.386718 l -20.96094,5.222657 -2.99804,-12.03125 c -1.41845,-5.692595 -0.79911,-10.38193 1.85547,-14.066407 2.84884,-4.007703 6.73015,-6.624579 11.64648,-7.849609 1.98917,-0.495654 3.83934,-0.752824 5.55078,-0.773437 z M -1184.416,60.681641 c 0.7516,-0.005 1.5275,0.0157 2.3262,0.0625 l 11.1796,0.65625 -1.8007,30.746093 c -4.2271,3.759136 -8.8699,5.489763 -13.9278,5.19336 -4.7917,-0.280805 -8.6997,-1.978242 -11.7226,-5.09375 -3.0073,-3.381716 -4.3374,-8.000817 -3.9942,-13.857422 0.6874,-11.729855 6.6659,-17.632175 17.9395,-17.707031 z"
             id="path10"
             inkscape:label="text" /></g><rect
           style="display:inline;fill:#3da0c8;fill-opacity:1;stroke:none;stroke-width:120;stroke-linecap:round;stroke-dasharray:none;stroke-opacity:1"
           id="rect12"
           width="1429.7988"
           height="509.71188"
           x="-1724.5524"
           y="-223.10074"
           inkscape:label="basecolor" /><path
           id="rect13"
           style="fill:#47bfe8;stroke-width:120;stroke-linecap:round"
           inkscape:label="wave"
           d="m -1750.6911,-35.908912 c 0,0 284.1604,90.377662 431.4766,99.364128 171.2505,10.446489 340.3669,-57.2256571 511.89919,-53.6843809 183.07069,3.7794859 543.5027,79.7951529 543.5027,79.7951529 l 3.25695,247.527822 H -1799.4622 Z"
           sodipodi:nodetypes="caacccc" /></g></g></g></svg>
